<svg xmlns="http://www.w3.org/2000/svg" width="48" height="48" viewBox="0 0 48 48" fill="none">
  <rect x="4.5" y="4.5" width="39" height="39" rx="4.25" fill="#FCFAF6" stroke="#1E2328" stroke-opacity="0.18"/>
  <rect x="7.5" y="7.5" width="33" height="33" rx="2.75" stroke="#C6A27E" stroke-opacity="0.16"/>
  <path d="M15.5 12.5V35.5M15.5 12.5H24.7C28.6 12.5 30.8 14.4 30.8 17.3C30.8 20.2 28.8 22.1 24.9 22.1H15.5M15.5 22.1H25.8C30.1 22.1 32.5 24.2 32.5 28.6C32.5 33.1 29.8 35.5 24.9 35.5H15.5" stroke="#1E2328" stroke-width="1.22" stroke-linecap="square" stroke-linejoin="miter"/>
  <path d="M30.9 15.6C29.5 14.2 27.5 13.3 25.2 13.3C22.4 13.3 20.4 14.7 20.4 16.8C20.4 19.3 22.8 20.1 25.5 20.8C28.9 21.6 31.7 22.8 31.7 26.3C31.7 30 28.6 32.6 24.4 32.6C22.4 32.6 20.3 32 18.3 30.7" stroke="#A67C52" stroke-width="1.12" stroke-linecap="round" stroke-linejoin="round"/>
</svg>
